<svg xmlns="http://www.w3.org/2000/svg" xmlns:svg="http://www.w3.org/2000/svg" id="svg2" width="1000" height="1000" version="1.1" viewBox="0 0 1000 1000"><metadata id="metadata7"/><g id="layer1" transform="translate(0,-52.36207)"><path id="rect3344" d="m 77.95437,729.77173 569.46257,0 c 31.19509,0 56.30881,33.78438 56.30881,75.74975 l 0,111.48076 -682.08017,0 0,-111.48076 c 0,-41.96537 25.11372,-75.74975 56.30879,-75.74975 z" style="fill:#4cd964;fill-opacity:1;fill-rule:evenodd;stroke:#000;stroke-width:.86258298px;stroke-linecap:butt;stroke-linejoin:miter;stroke-opacity:0"/><path id="rect3344-3" d="m 221.3401,465.31832 569.46257,0 c 31.19509,0 56.30881,33.78439 56.30881,75.74976 l 0,111.48076 -682.08017,0 0,-111.48076 c 0,-41.96537 25.11371,-75.74976 56.30879,-75.74976 z" style="fill:#ff9500;fill-opacity:1;fill-rule:evenodd;stroke:#000;stroke-width:.86258298px;stroke-linecap:butt;stroke-linejoin:miter;stroke-opacity:0"/><path id="rect3344-6" d="m 360.15449,203.29335 569.46257,0 c 31.19509,0 56.30881,33.78439 56.30881,75.74975 l 0,111.48076 -682.08017,0 0,-111.48076 c 0,-41.96536 25.11372,-75.74975 56.30879,-75.74975 z" style="fill:#007aff;fill-opacity:1;fill-rule:evenodd;stroke:#000;stroke-width:.86258298px;stroke-linecap:butt;stroke-linejoin:miter;stroke-opacity:0"/></g></svg>